<?xml version="1.0" encoding="utf-8"?>
<!-- Svg Vector Icons : http://www.onlinewebfonts.com/icon -->
<!DOCTYPE svg PUBLIC "-//W3C//DTD SVG 1.1//EN" "http://www.w3.org/Graphics/SVG/1.1/DTD/svg11.dtd">
<svg version="1.1" xmlns="http://www.w3.org/2000/svg" xmlns:xlink="http://www.w3.org/1999/xlink" x="0px" y="0px" viewBox="0 0 1000 1000" enable-background="new 0 0 1000 1000" xml:space="preserve">
<metadata> Svg Vector Icons : http://www.onlinewebfonts.com/icon </metadata>
<g><path d="M990,197.5c0-22.1-17.8-39.9-39.9-39.9l-737.4,0l-20.9-98.2c-0.8-3.9-2.2-7.5-4-10.8c-5.1-16.1-20.2-27.8-38-27.8h-100c-22,0-39.9,17.7-39.9,39.9c0,22.1,17.9,39.9,39.9,39.9H119l127.6,600.5c3.8,17.7,18.6,30.1,35.8,31.5c3.6,1.1,7.4,1.7,11.3,1.7h519.6c22,0,39.8-17.7,39.8-39.9c0-22.1-17.9-39.9-39.8-39.9h-495l-21.7-102.3h539c9.5,0,18.2-3.3,25-8.8c6.6-4.5,11.9-11,14.8-19.1l109.4-300.6c1.4-3.7,2.1-7.5,2.3-11.3C989,207.7,990,202.7,990,197.5z M809.3,472.2H279.6l-49.9-234.8h665.1L809.3,472.2z"/><path d="M279.1,899.5c0,44.1,35.8,79.9,79.9,79.9c44.1,0,79.9-35.8,79.9-79.9c0-44.1-35.8-79.9-79.9-79.9C314.9,819.6,279.1,855.3,279.1,899.5L279.1,899.5z"/><path d="M658.6,899.5c0,44.1,35.8,79.9,79.9,79.9c44.1,0,79.9-35.8,79.9-79.9c0-44.1-35.8-79.9-79.9-79.9C694.4,819.6,658.6,855.3,658.6,899.5z"/></g>
</svg>