<svg xmlns="http://www.w3.org/2000/svg" xmlns:xlink="http://www.w3.org/1999/xlink" preserveAspectRatio="xMidYMid meet" version="1.0" viewBox="-0.2 -0.3 400.3 400.3" zoomAndPan="magnify" style="fill: rgb(0, 129, 201);" original_string_length="3372" width="33.12302578389115px" height="33.12302578389115px"><g id="__id18_sxosw7zxxf"><path d="M45.73,175.56c-1.77,3.09-5.71,4.16-8.79,2.39l-19.31-11.03c-3.09-1.77-4.16-5.71-2.39-8.79c1.77-3.09,5.71-4.16,8.79-2.39 l19.31,11.03C46.42,168.53,47.49,172.47,45.73,175.56z M399.97,171.85c0.18,2.4-1,4.81-3.22,6.08l-93.56,53.46l0,106.36 c0.18,2.4-1,4.81-3.22,6.08v0l-96.51,55.15c-0.03,0.02-0.07,0.04-0.11,0.06c-0.18,0.11-0.37,0.21-0.56,0.31 c-0.06,0.03-0.12,0.06-0.18,0.09c-0.24,0.11-0.49,0.2-0.74,0.28c-0.05,0.01-0.1,0.02-0.14,0.04c-0.22,0.06-0.44,0.11-0.66,0.15 c-0.08,0.01-0.15,0.02-0.23,0.03c-0.27,0.04-0.55,0.06-0.83,0.06c0,0,0,0,0,0c0,0,0,0,0,0s0,0,0,0c0,0,0,0,0,0 c-0.28,0-0.56-0.02-0.83-0.06c-0.08-0.01-0.15-0.02-0.23-0.03c-0.23-0.04-0.45-0.09-0.66-0.15c-0.05-0.01-0.1-0.02-0.15-0.04 c-0.25-0.08-0.5-0.17-0.74-0.28c-0.06-0.03-0.12-0.06-0.19-0.09c-0.19-0.09-0.38-0.2-0.56-0.31c-0.03-0.02-0.07-0.04-0.11-0.06 l-96.51-55.15c-2.23-1.28-3.4-3.68-3.22-6.08l0-106.36L3.24,177.94c-2.23-1.28-3.4-3.68-3.22-6.08l0-109.62 c-0.18-2.4,0.99-4.8,3.22-6.07l96.78-55.3c1.92-1.09,4.35-1.17,6.4,0l93.57,53.47l93.58-53.48c1.92-1.09,4.35-1.17,6.4,0l96.77,55.3 c0.97,0.55,1.8,1.36,2.39,2.39c0.66,1.16,0.93,2.44,0.83,3.67L399.97,171.85z M19.42,61.76l83.8,47.87l5.33-3.05l15.85-9.06 L40.61,49.65L19.42,61.76z M53.59,42.23l83.79,47.88l17.36-9.92L70.95,32.31L53.59,42.23z M212.97,61.75l83.8,47.87l21.18-12.1 l-83.79-47.88L212.97,61.75z M247.15,42.22l83.79,47.88l17.36-9.92L264.51,32.3L247.15,42.22z M251.52,246.09l-83.79-47.88 l-17.36,9.92l83.79,47.88L251.52,246.09z M193.57,72.84l-19.39,11.08v20.23c-0.01,2.23-1.17,4.4-3.25,5.59l-29.46,16.83 c-1,0.64-2.19,1.01-3.47,1.01c-3.56,0-6.45-2.89-6.45-6.45v0v-12.86l-21.88,12.51v95.76l26.61-15.21h0l57.29-32.73l0-23.73 L193.57,72.84z M144.45,110.02l16.82-9.61v-9.12l-4.81,2.75l-12.02,6.87V110.02z M206.42,168.59l83.9,47.94v-95.76l-83.9-47.94 l0,71.86L206.42,168.59z M205.43,272.42l15.74-8.99l-83.79-47.88l-21.19,12.11l83.8,47.87L205.43,272.42z M283.78,227.65L200,179.77 l-19.28,11.02l83.79,47.88L283.78,227.65z M241.23,275.93l16.82-9.61v-9.12l-4.67,2.67l-12.15,6.95V275.93z M338.01,110.02 l16.82-9.61v-9.12l-4.78,2.73l-12.04,6.88V110.02z M277.49,24.88l83.79,47.88l19.28-11.02l-83.79-47.88L277.49,24.88z M83.94,24.88 l83.79,47.88l19.28-11.02l-83.79-47.88L83.94,24.88z M12.87,168.6l83.9,47.94v-95.76l-83.9-47.94L12.87,168.6z M109.64,334.5 l83.9,47.94v-95.76l-83.9-47.94L109.64,334.5z M233.06,367.24l57.29-32.73l0-95.76l-19.39,11.08v20.23 c-0.01,2.23-1.17,4.4-3.25,5.59l-29.46,16.83c-1,0.64-2.19,1.01-3.47,1.01c-3.56,0-6.45-2.89-6.45-6.45v0v-12.86l-21.88,12.51v95.76 L233.06,367.24L233.06,367.24z M329.83,201.33l57.29-32.73l0-95.76l-19.39,11.08v20.23c-0.01,2.23-1.17,4.4-3.25,5.59l-29.46,16.83 c-1,0.64-2.19,1.01-3.47,1.01c-3.56,0-6.45-2.89-6.45-6.45v0v-12.85l-21.88,12.51v95.76L329.83,201.33L329.83,201.33z M236.89,166.76l-19.31-11.03c-3.09-1.77-7.03-0.69-8.79,2.39c-1.77,3.09-0.69,7.03,2.39,8.79l19.31,11.03 c3.09,1.77,7.03,0.69,8.79-2.39C241.04,172.47,239.97,168.53,236.89,166.76z M140.11,332.67l-19.31-11.03 c-3.09-1.77-7.03-0.69-8.79,2.39c-1.77,3.09-0.69,7.03,2.39,8.79l19.31,11.03c3.09,1.77,7.03,0.69,8.79-2.39 C144.27,338.38,143.2,334.44,140.11,332.67z" style="fill: inherit;"/></g></svg>