<svg xmlns="http://www.w3.org/2000/svg" xmlns:xlink="http://www.w3.org/1999/xlink" stroke="#000" stroke-linecap="square" stroke-miterlimit="10" viewBox="0 0 576.93 481.1" style="fill: rgb(0, 0, 0);" original_string_length="38941" width="200px" height="120px"><defs><clipPath id="__id0_srkkocmuz3"><path d="M0 0V481.1H576.93V0Z"/></clipPath><clipPath clip-path="url(#__id0_srkkocmuz3)" id="__id1_srkkocmuz3"><path d="M-65.87 594.88H642.79V-113.78H-65.87Z"/></clipPath><clipPath clip-path="url(#__id1_srkkocmuz3)" id="__id2_srkkocmuz3"><path d="M-65.87-113.78H642.79V594.88H-65.87Z"/></clipPath></defs><g><g stroke="none" style="fill: rgb(255, 255, 255);"><path clip-path="url(#__id2_srkkocmuz3)" d="M290.46 475.09c-76.79 0-146.41-27.01-181.7-70.49l-.31-.38H24.96c-10.44 0-18.94-8.51-18.94-18.95V115.79c0-10.45 8.5-18.95 18.94-18.95H94.41l.25-.15c19.98-12.25 42.67-22.57 67.43-30.64l.28-.09.19-.23c31.06-37.95 76.95-59.72 125.9-59.72s94.85 21.77 125.9 59.72l.19.23.28.09c24.78 8.07 47.46 18.38 67.43 30.63l.25.15h69.45c10.44 0 18.94 8.5 18.94 18.96V385.27c0 10.44-8.5 18.95-18.94 18.95H472.46l-.31.38c-35.29 43.48-104.9 70.49-181.69 70.49" style="fill: inherit;"/><path clip-path="url(#__id2_srkkocmuz3)" d="M24.96 111.8c-2.2 0-3.99 1.79-3.99 4V385.27c0 2.2 1.79 4 3.99 4h90.75l3.61 4.58c31.66 40.27 98.84 66.29 171.14 66.29s139.48-26.02 171.14-66.29l3.6-4.58h86.77c2.2 0 3.99-1.8 3.99-4V115.79c0-2.21-1.79-4-3.99-4H478.26l-2.89-1.8c-19.5-12.08-41.78-22.19-66.25-30.08l-3.4-1.1-2.24-2.78c-28.23-35.01-70.16-55.07-115.02-55.07S201.68 41.05 173.45 76.04l-2.25 2.78-3.4 1.1c-24.46 7.88-46.75 18-66.23 30.08l-2.9 1.8Zm265.5 352.32c-73.48 0-141.89-26.62-174.28-67.82l-2.4-3.04H24.96c-4.4 0-7.98-3.57-7.98-7.99V115.79c0-4.41 3.58-7.98 7.98-7.98H97.53l1.94-1.21c19.77-12.24 42.34-22.5 67.11-30.48l2.27-.73 1.49-1.86c28.99-35.93 72.04-56.54 118.12-56.54s89.13 20.61 118.13 56.54l1.49 1.86 2.27.73c24.77 7.98 47.35 18.24 67.11 30.48l1.94 1.21h72.57c4.4 0 7.98 3.57 7.98 7.99V385.27c0 4.41-3.58 7.99-7.98 7.99H467.14l-2.4 3.04c-32.39 41.2-100.8 67.82-174.28 67.82M24.96 103.81c-6.61 0-11.97 5.37-11.97 11.98V385.27c0 6.6 5.37 11.99 11.97 11.99h86.88l1.2 1.52c33.63 42.78 101.61 69.35 177.42 69.35s143.79-26.57 177.42-69.35l1.2-1.52h82.89c6.6 0 11.97-5.39 11.97-11.99V115.79c0-6.62-5.37-11.98-11.97-11.98H480.53l-.96-.6C459.53 90.8 436.65 80.4 411.58 72.31l-1.14-.37-.75-.92c-29.75-36.89-73.94-58.04-121.23-58.04S196.99 34.14 167.23 71.02l-.74.92-1.13.37c-25.08 8.08-47.96 18.48-67.99 30.9l-.97.6ZM290.46 476.1c-77.31 0-146.98-27.11-182.49-70.86H24.96c-11 0-19.96-8.96-19.96-19.97V115.79c0-11.02 8.96-19.97 19.96-19.97H94.13c20.05-12.3 42.8-22.64 67.64-30.74C193.04 26.88 239.15 5 288.46 5s95.43 21.88 126.68 60.08c24.86 8.1 47.61 18.44 67.65 30.74h69.17c11.01 0 19.96 8.95 19.96 19.97V385.27c0 11.01-8.96 19.97-19.96 19.97H472.94c-35.5 43.75-105.18 70.86-182.48 70.86" style="fill: rgb(0, 130, 195);"/><path clip-path="url(#__id2_srkkocmuz3)" d="M39.51 304.35v-.73c1.76 0 3.08-2.49 3.08-7.48V210.36c0-4.99-1.32-7.48-3.08-7.48v-.73H70.45v17.74H68.54c0-6.6-7.62-14.08-15.4-14.08v39.3h9.39c2.05 0 3.67-1.61 3.67-3.67h.59v12.9h-.59c0-2.05-1.61-3.67-3.67-3.67H53.14v45.46c0 4.99 1.32 7.48 3.08 7.48v.73Z" style="fill: rgb(0, 58, 93);"/><path clip-path="url(#__id2_srkkocmuz3)" d="M82.32 202.88v-.73H99.04v.73c-1.76 0-3.08 2.49-3.08 7.48v85.78c0 4.99 1.32 7.48 3.08 7.48v.73H82.32v-.73c1.76 0 3.08-2.49 3.08-7.48V210.36c0-4.99-1.32-7.48-3.08-7.48" style="fill: rgb(0, 58, 93);"/><path clip-path="url(#__id2_srkkocmuz3)" d="M126.9 204.35c-2.35 0-4.25 2.2-4.25 4.99v15.25c0 12.32 20.53 23.32 20.53 39.89v28.15c0 7.33-7.04 13.2-15.69 13.2s-15.69-5.87-15.69-13.2V273.27h10.26v22.29c0 3.67 2.2 6.6 4.99 6.6s4.99-2.93 4.99-6.6V268.43c0-12.17-21.12-24.78-21.12-39.01V213.29c0-6.89 6.74-12.61 14.96-12.61s14.96 5.72 14.96 12.61v16.28h-9.68V209.33c0-2.79-1.91-4.99-4.25-4.99" style="fill: rgb(0, 58, 93);"/><path clip-path="url(#__id2_srkkocmuz3)" d="M155.05 202.88v-.73h16.72v.73c-1.76 0-3.08 2.49-3.08 7.48v32.99h10.85V210.36c0-4.99-1.32-7.48-3.08-7.48v-.73h16.72v.73c-1.76 0-3.08 2.49-3.08 7.48v85.78c0 4.99 1.32 7.48 3.08 7.48v.73H176.46v-.73c1.76 0 3.08-2.49 3.08-7.48V247.75H168.69v48.39c0 4.99 1.32 7.48 3.08 7.48v.73H155.05v-.73c1.76 0 3.08-2.49 3.08-7.48V210.36c0-4.99-1.32-7.48-3.08-7.48" style="fill: rgb(0, 58, 93);"/><path clip-path="url(#__id2_srkkocmuz3)" d="M245.08 204.93c-3.37 0-6.31 2.2-6.45 5.72V291.3c0 4.55 2.05 9.83 6.6 9.83 4.84 0 7.33-4.99 7.62-9.83V268.72h6.6v23.17c-.15 8.5-7.18 14.22-15.4 14.22-10.56 0-15.54-5.86-15.54-14.22V214.9c0-8.8 8.65-14.08 17.45-14.08 5.13 0 7.92.73 13.05 1.32v17.89h-1.17c-2.35-6.75-5.72-15.1-12.76-15.1" style="fill: rgb(0, 58, 93);"/><path clip-path="url(#__id2_srkkocmuz3)" d="M290.39 204.49c-3.37 0-5.43 3.37-5.43 6.75v84.02c0 3.37 2.05 6.74 5.43 6.74s5.43-3.37 5.43-6.74V211.24c0-3.37-2.05-6.75-5.43-6.75m15.98 9.83v77.86c0 8.36-7.77 13.64-15.98 13.64s-15.98-5.28-15.98-13.64V214.32c0-8.36 7.77-13.64 15.98-13.64s15.98 5.28 15.98 13.64" style="fill: rgb(0, 58, 93);"/><path clip-path="url(#__id2_srkkocmuz3)" d="M347.87 202.88v-.73h16.42v.73c-1.76 0-3.08 2.49-3.08 7.48v85.78c0 4.99 1.32 7.48 3.08 7.48v.73H348.31v-.73c1.76 0 3.08-2.49 3.08-7.48V233.53l-12.02 70.83H337.6l-11.44-70.83v62.61c0 4.99 1.32 7.48 3.08 7.48v.73h-11v-.73c1.76 0 3.08-2.49 3.08-7.48V210.36c0-4.99-1.32-7.48-3.08-7.48v-.73h17.01v.73c-1.32 0-2.49 2.05-2.49 5.57 0 .88 8.36 51.91 8.36 51.91s8.94-52.35 8.94-52.94c0-3.81-1.17-4.55-2.2-4.55" style="fill: rgb(0, 58, 93);"/><path clip-path="url(#__id2_srkkocmuz3)" d="M396.11 246.58v-34.9c0-2.35-1.61-5.28-4.4-5.28h-6.16v45.46h6.16c2.79 0 4.4-2.93 4.4-5.28m9.97-31.67v28.45c0 8.07-5.57 12.76-13.05 12.76h-7.48v40.03c0 4.99 1.32 7.48 3.08 7.48v.73H373.09v-.73c1.76 0 3.08-2.49 3.08-7.48V210.36c0-4.99-1.32-7.48-3.08-7.48v-.73h19.94c7.48 0 13.05 4.69 13.05 12.76" style="fill: rgb(0, 58, 93);"/><path clip-path="url(#__id2_srkkocmuz3)" d="M428.37 272.24l-4.4-38.13-5.43 38.13Zm-10.85 31.38v.73H406.23v-.73c1.03 0 3.23-4.25 3.67-6.74l14.08-94.73h6.75l11.44 94.73c.44 2.64 1.76 6.74 3.23 6.74v.73H429.1v-.73c1.17 0 2.35-2.79 2.35-4.84l-2.49-21.85h-11l-2.93 20.68c0 1.61.88 6.01 2.49 6.01" style="fill: rgb(0, 58, 93);"/><path clip-path="url(#__id2_srkkocmuz3)" d="M489.07 210.36v93.99h-6.89L462.24 228.1v68.04c0 4.99 1.32 7.48 3.08 7.48v.73h-11v-.73c1.76 0 3.08-2.49 3.08-7.48V209.18c0-3.08-1.91-6.31-3.22-6.31v-.73h16.71v.73c-.73 0-1.91 1.61-1.91 2.93 0 1.61.15 3.08.44 3.96l14.81 53.38V210.36c0-4.99-1.32-7.48-3.08-7.48v-.73h11v.73c-1.76 0-3.08 2.49-3.08 7.48" style="fill: rgb(0, 58, 93);"/><path clip-path="url(#__id2_srkkocmuz3)" d="M531.59 208.74c0-4.98-3.09-5.86-4.54-5.86v-.73H540.1v.73c-2.49 0-2.93 2.64-4.25 7.48l-10.41 40.03v45.75c0 4.99 1.32 7.48 3.08 7.48v.73H511.8v-.73c1.76 0 3.08-2.49 3.08-7.48V250.39l-9.97-39.3c-1.17-4.84-2.64-8.21-3.96-8.21v-.73h16.72v.73c-1.39 0-3.07 2.36-3.07 5.72 0 .91.1 1.89.38 2.92l8.71 34.33 7.48-33.14c.3-1.42.43-2.74.43-3.96" style="fill: rgb(0, 58, 93);"/><path clip-path="url(#__id2_srkkocmuz3)" d="M245.34 450.65c-72.56 0-121.66-34.33-159.24-111.29-1.92-3.95-.32-8.73 3.6-10.7 28.59-14.4 53.71-24 83.42-24 16.54 0 33.97 3.03 53.28 9.28 3 .97 5.14 3.6 5.51 6.72s-1.12 6.17-3.81 7.8c-13.69 8.31-29 21.84-24.15 39.18 6.76 24.19 46.63 44.62 87.08 44.62l1.75-.02c41.89-.63 83.09-5.3 119.45-9.43.3-.03.61-.05.92-.05 3.83 0 7.19 2.74 7.89 6.61.76 4.15-1.83 8.19-5.93 9.22-7.01 1.79-13.92 3.55-20.76 5.3-56.06 14.36-104.47 26.77-149 26.77" fill-rule="evenodd" style="fill: inherit;"/><path clip-path="url(#__id2_srkkocmuz3)" d="M509.74 456.13c-2.06 0-4.1-.78-5.66-2.33-33.99-33.71-63.54-38.25-87.97-38.25-14.23 0-28.64 1.81-43.9 3.72-16.55 2.08-33.66 4.22-51.96 4.22l-2.75-.01c-1.71.07-3.92.1-6.28.1-53.94 0-111.9-15.86-112.84-60.4-.93-43.87 77.61-75.89 112.42-78.26.19-.01.37-.02.55-.02 3.54 0 6.71 2.34 7.71 5.78 1.07 3.62-.55 7.49-3.86 9.31-13.81 7.55-29.38 20.57-25.12 39.76 5.12 23.1 35.89 45.04 65.84 46.94 1.96.13 3.91.2 5.87.2 42.26-.01 86.61-29.75 112.95-75.76 1.49-2.59 4.2-4.05 6.98-4.05 1.25 0 2.51.3 3.69.9 3.82 1.98 5.41 6.63 3.59 10.53-5.77 12.43-4.27 21.84-2.7 31.8 1.79 11.25 3.76 23.65-7.56 36.51 18.09 6.38 21.37 18.24 24.58 29.79 2.31 8.29 4.69 16.87 12.59 26.33 2.75 3.3 2.43 8.17-.73 11.08-1.54 1.41-3.49 2.11-5.43 2.11" fill-rule="evenodd" style="fill: inherit;"/><path clip-path="url(#__id2_srkkocmuz3)" d="M257.27 101.1h-2.02c0-7.16-5.91-21-11.36-21v96.61c0 5.29 1.4 7.93 3.27 7.93v.78H229.42v-.78c1.87 0 3.27-2.64 3.27-7.93V80.1c-5.45 0-11.36 13.85-11.36 21h-2.02V76.98h37.96Z" style="fill: rgb(0, 58, 93);"/><path clip-path="url(#__id2_srkkocmuz3)" d="M272.99 77.76v-.78h17.74v.78c-1.87 0-3.27 2.65-3.27 7.93V120.7h11.51V85.7c0-5.29-1.4-7.93-3.27-7.93v-.78h17.74v.78c-1.87 0-3.27 2.65-3.27 7.93v91.01c0 5.29 1.4 7.93 3.27 7.93v.78H295.7v-.78c1.87 0 3.27-2.65 3.27-7.93V125.37H287.46v51.34c0 5.29 1.4 7.93 3.27 7.93v.78H272.99v-.78c1.87 0 3.27-2.65 3.27-7.93V85.7c0-5.29-1.4-7.93-3.27-7.93" style="fill: rgb(0, 58, 93);"/><path clip-path="url(#__id2_srkkocmuz3)" d="M358.71 95.81h-2.02c0-7-8.09-14.94-16.34-14.94v41.7h9.96c2.18 0 3.89-1.71 3.89-3.89h.62v13.69h-.62c0-2.18-1.71-3.89-3.89-3.89h-9.96v53.21c9.65 0 17.27-8.09 17.27-15.87h2.02v19.6H325.89v-.78c1.87 0 3.27-2.64 3.27-7.93V85.7c0-5.29-1.4-7.93-3.27-7.93v-.78h32.83Z" style="fill: rgb(0, 58, 93);"/><path clip-path="url(#__id2_srkkocmuz3)" d="M93.33 331.99c43.89-22.11 77.5-31.41 130.61-14.24-69.02 41.85-1.98 99.71 68.95 98.68 41.36-.64 80.82-5.01 120.24-9.49-141.96 35.93-248.19 71.73-319.8-74.95" fill-rule="evenodd" style="fill: rgb(0, 130, 195);"/><path clip-path="url(#__id2_srkkocmuz3)" d="M150.14 326.48c7.67 2.05 12.22 9.94 10.16 17.59s-9.93 12.21-17.6 10.16c-7.67-2.04-12.21-9.93-10.16-17.59s9.93-12.22 17.59-10.16" fill-rule="evenodd" style="fill: inherit;"/><path clip-path="url(#__id2_srkkocmuz3)" d="M317.59 415.44c70.57.85 126.08-32.87 192.14 32.65-23.85-28.54-4.03-51.43-48.55-56.97 36.77-24.05 4.38-41.29 20.53-76.01-27.52 48.04-76.48 82.79-126.32 79.59-53.86-3.45-110.32-65.56-44.05-101.79-32.15 2.2-105.73 32.26-104.93 70.08 1 46.43 77.82 53.52 111.19 52.44" fill-rule="evenodd" style="fill: rgb(0, 130, 195);"/><path clip-path="url(#__id2_srkkocmuz3)" d="M211.26 322.81c-29.29 5.41-49.08 41.73-34.53 70.27-27.33-29.38-7.99-68.12 34.53-70.27" fill-rule="evenodd" style="fill: inherit;"/><path clip-path="url(#__id2_srkkocmuz3)" d="M290.25 53.4c.4-.17.85-.21 1.26-.13s.81.31 1.09.62c.28.29.48.69.51 1.1.04.4-.08.8-.28 1.11-.21.3-.49.53-.82.6-.31.1-.63.04-.87-.09-.25-.12-.43-.31-.54-.53-.09-.2-.11-.4-.09-.56.04-.32.17-.45.17-.45.13-.21.33-.34.52-.36.19-.04.34.01.44.06.22.13.25.25.25.25-.02.02-.08-.09-.29-.19-.09-.05-.23-.08-.39-.04-.17.03-.33.15-.44.34 0 0-.11.13-.13.39-.01.14.01.31.09.48s.25.32.46.41c.21.12.47.15.72.08.26-.08.49-.26.66-.53.16-.24.25-.57.21-.88-.03-.34-.18-.64-.42-.89-.47-.49-1.26-.66-1.88-.37-.31.14-.59.37-.79.65-.22.27-.35.61-.42.93-.14.66.02 1.32.34 1.77.32.49.74.81 1.1 1 .19.09.46.22.83.29s.8.07 1.26-.04c.91-.23 1.84-1.07 2.3-2.08.24-.52.36-1.05.39-1.55.06-1.27-.94-3.03-1.16-3.92-.44-1.73-.42-3.55.01-5.22.43-1.66 1.25-3.17 2.33-4.35.33-.36.35-1.46.28-1.99-.08-.55-.24-1.07-.44-1.53-.41-.92-1-1.44-1.34-1.7-.32-.23-.74-.49-1.28-.66-.51-.16-1.16-.22-1.81-.11s-1.34.4-1.86.88-.89 1.15-1.03 1.86-.04 1.44.22 2.03c.23.6.63 1.05 1.05 1.32.41.28.82.39 1.1.44s.44.03.44.03c.46 0 .81-.1 1.03-.18.22-.07.33-.13.35-.1 0 0-.08.1-.3.22s-.56.27-1.06.31c0 0-.17.01-.49.01-.3-.02-.75-.09-1.24-.36-.49-.26-1.02-.73-1.36-1.4-.36-.66-.55-1.52-.46-2.39.08-.86.46-1.75 1.08-2.43.62-.67 1.44-1.09 2.26-1.32.82-.21 1.65-.17 2.36 0s1.31.51 1.73.84c.22.16.53.42.84.79.31.38.6.88.82 1.45.23.55.39 1.2.44 1.88.02.27.02.57-.01.86.71-.58 1.47-1.07 2.24-1.43 1.29-.63 2.6-.93 3.81-1.05 1.21-.11 2.34-.02 3.3.16 1.04.18 2.5.57 4.1 1.42.79.42 1.62.94 2.45 1.6.81.65 1.58 1.33 2.41 2.08 1.36 1.25 4.14 3.92 4.79 4.26.54.27 1.19.4 1.84.44s1.32-.04 1.94-.24c.61-.21 1.18-.52 1.6-.88.9-.73 1.27-1.67 1.4-2.15.14-.46.24-1.07.16-1.75-.03-.34-.11-.68-.24-1.04s-.31-.72-.54-1.01c-.48-.64-1.21-1.11-2.05-1.26-.82-.15-1.71.02-2.41.5-.67.46-1.11 1.23-1.21 2-.11.76.11 1.48.42 1.98.32.51.75.77 1.05.91s.5.17.5.17c.54.09.96 0 1.22-.09s.39-.15.41-.12c.01.02-.1.11-.36.25-.26.12-.71.26-1.3.19 0 0-.21 0-.56-.11-.34-.12-.84-.38-1.26-.93s-.71-1.33-.67-2.25c.04-.9.46-1.9 1.28-2.56.8-.64 1.88-.99 2.93-.88 1.07.1 2.08.62 2.77 1.42s1.06 1.74 1.2 2.62c.12.88.04 1.69-.16 2.32-.09.33-.25.77-.55 1.26-.29.51-.73 1.04-1.31 1.47-.59.45-1.27.77-2.02.98-.76.2-1.55.25-2.32.12-.16-.01-.32-.04-.48-.07 1.47 1.18 3.03 2.26 4.65 3.16 2.04 1.1 4.14 1.88 6.15 2.45 2.01.55 3.9.89 5.52 1.14 1.62.23 2.97.37 3.89.49.95.11 1.48.21 1.48.31s-.54.2-1.49.27-2.31.1-3.99.03c-1.67-.1-3.64-.29-5.76-.76-2.13-.45-4.4-1.18-6.61-2.25-2.21-1.07-4.32-2.49-6.22-4.03-1.89-1.54-3.6-3.18-5.19-4.56-.79-.7-1.59-1.37-2.3-1.91s-1.45-.98-2.13-1.33c-1.36-.68-2.58-1.01-3.43-1.15s-1.77-.23-2.77-.14-2.06.35-3.08.84c-1.02.5-2.04 1.23-2.89 2.16-.84.93-1.49 2.1-1.84 3.42-.33 1.31-.36 2.75-.01 4.13s1.04 2.69 2.04 3.73c.95 1.03 2.26 1.7 3.64 1.89s2.82-.1 4.01-.81c.57-.34 1.14-.81 1.58-1.31.42-.51.76-1.1.96-1.73.43-1.25.36-2.65-.12-3.79-.24-.57-.58-1.09-.96-1.54-.39-.43-.85-.77-1.35-.99-.99-.48-2.08-.48-2.97-.17-.89.29-1.61.88-2.04 1.49-.43.64-.59 1.33-.6 1.87s.09.98.17 1.25c.1.28.18.42.18.42.19.4.47.75.75 1.02s.61.44.92.57c.63.21 1.22.18 1.66.05.44-.11.74-.31.94-.42.19-.13.28-.21.3-.19 0 0-.05.12-.22.28-.18.18-.48.42-.95.59s-1.12.27-1.85.03c-.37-.1-.74-.29-1.09-.57-.34-.31-.65-.67-.9-1.15 0 0-.09-.14-.22-.47-.11-.32-.27-.82-.28-1.48s.16-1.47.65-2.25c.25-.4.59-.76.99-1.1.39-.31.87-.59 1.41-.79 1.05-.39 2.39-.41 3.62.14.61.27 1.2.69 1.7 1.21s.9 1.16 1.2 1.86c.62 1.4.73 3.12.21 4.72-.27.78-.69 1.54-1.24 2.21-.55.64-1.19 1.18-1.93 1.64-1.47.87-3.26 1.26-5.01 1.03s-3.43-1.1-4.67-2.41c-.39-.39-.75-.85-1.06-1.33.02.22.04.43.05.64 0 .56-.1 1.16-.34 1.75-.46 1.15-1.46 2.15-2.57 2.44-.55.15-1.08.16-1.5.09-.45-.07-.79-.22-1.01-.33-.43-.22-.92-.59-1.29-1.17-.4-.58-.6-1.41-.41-2.22.17-.81.7-1.56 1.49-1.93" style="fill: rgb(0, 130, 195);"/><path clip-path="url(#__id2_srkkocmuz3)" d="M286.67 53.4c-.39-.17-.84-.21-1.26-.13s-.79.31-1.08.62c-.29.29-.49.69-.52 1.1-.03.4.08.8.29 1.11.19.3.49.53.81.6.32.1.63.04.88-.09.24-.12.42-.31.52-.53.09-.2.12-.4.09-.56-.03-.32-.17-.45-.17-.45-.13-.21-.33-.34-.52-.36-.18-.04-.34.01-.44.06-.21.13-.25.25-.25.25.01.02.08-.09.28-.19.11-.05.25-.08.4-.04s.32.15.45.34c0 0 .09.13.13.39.01.14-.01.31-.11.48s-.25.32-.45.41c-.21.12-.47.15-.72.08s-.48-.26-.66-.53c-.16-.24-.24-.57-.21-.88.03-.34.18-.64.42-.89.47-.49 1.27-.66 1.89-.37.31.14.59.37.79.65.21.27.35.61.42.93.14.66-.02 1.32-.35 1.77-.32.49-.73.81-1.1 1-.18.09-.46.22-.82.29s-.8.07-1.26-.04c-.91-.23-1.84-1.07-2.29-2.08-.24-.52-.36-1.05-.38-1.55-.08-1.27.93-3.03 1.15-3.92.43-1.73.41-3.55-.01-5.22-.43-1.66-1.26-3.17-2.34-4.35-.33-.36-.35-1.46-.27-1.99.08-.55.23-1.07.45-1.53.41-.92.99-1.44 1.33-1.7.32-.23.75-.49 1.28-.66s1.16-.22 1.81-.11 1.34.4 1.85.88c.53.49.9 1.15 1.04 1.86s.05 1.44-.21 2.03c-.24.6-.65 1.05-1.06 1.32-.42.28-.82.39-1.09.44s-.44.03-.44.03c-.47 0-.8-.1-1.02-.18-.23-.07-.34-.13-.35-.1-.01.01.08.1.3.22s.57.27 1.07.31c0 0 .17.01.47.01.31-.02.75-.09 1.25-.36.48-.26 1.01-.73 1.36-1.4.36-.66.55-1.52.46-2.39-.08-.86-.46-1.75-1.07-2.43-.62-.67-1.45-1.09-2.26-1.32-.82-.21-1.65-.17-2.36 0-.72.18-1.3.51-1.74.84-.21.16-.52.42-.83.79-.3.38-.6.88-.83 1.45-.23.55-.39 1.2-.43 1.88-.02.27-.02.57.01.86-.72-.58-1.48-1.07-2.25-1.43-1.28-.63-2.6-.93-3.8-1.05-1.23-.11-2.34-.02-3.32.16-1.03.18-2.49.57-4.08 1.42-.8.42-1.64.94-2.45 1.6-.82.65-1.59 1.33-2.42 2.08-1.35 1.25-4.13 3.92-4.8 4.26-.53.27-1.17.4-1.82.44s-1.32-.04-1.94-.24c-.61-.21-1.18-.52-1.62-.88-.88-.73-1.25-1.67-1.39-2.15-.14-.46-.23-1.07-.16-1.75.04-.34.11-.68.25-1.04s.31-.72.55-1.01c.47-.64 1.21-1.11 2.04-1.26.83-.15 1.72.02 2.42.5.68.46 1.12 1.23 1.21 2 .11.76-.1 1.48-.42 1.98-.32.51-.75.77-1.05.91s-.5.17-.5.17c-.54.09-.96 0-1.22-.09s-.4-.15-.41-.12c-.01.02.1.11.36.25.26.12.71.26 1.31.19 0 0 .21 0 .55-.11.35-.12.85-.38 1.26-.93s.72-1.33.67-2.25c-.04-.9-.47-1.9-1.28-2.56-.81-.64-1.88-.99-2.94-.88s-2.08.62-2.76 1.42-1.06 1.74-1.19 2.62-.04 1.69.14 2.32c.09.33.26.77.54 1.26.31.51.74 1.04 1.32 1.47.58.45 1.28.77 2.03.98.75.2 1.55.25 2.31.12.16-.01.33-.04.49-.07-1.47 1.18-3.03 2.26-4.67 3.16-2.02 1.1-4.14 1.88-6.14 2.45-2 .55-3.91.89-5.52 1.14-1.62.23-2.96.37-3.9.49s-1.46.21-1.46.31.53.2 1.48.27 2.32.1 3.99.03c1.66-.1 3.63-.29 5.76-.76 2.13-.45 4.4-1.18 6.61-2.25 2.21-1.07 4.31-2.49 6.21-4.03s3.6-3.18 5.19-4.56c.79-.7 1.58-1.37 2.31-1.91.72-.55 1.43-.98 2.12-1.33 1.37-.68 2.59-1.01 3.43-1.15.82-.15 1.77-.23 2.77-.14s2.05.35 3.08.84c1.02.5 2.03 1.23 2.88 2.16s1.49 2.1 1.84 3.42c.33 1.31.37 2.75.02 4.13-.33 1.38-1.04 2.69-2.04 3.73-.97 1.03-2.27 1.7-3.65 1.89s-2.82-.1-4.01-.81c-.59-.34-1.14-.81-1.56-1.31-.45-.51-.77-1.1-.99-1.73-.43-1.25-.35-2.65.13-3.79.24-.57.58-1.09.96-1.54.4-.43.85-.77 1.35-.99.99-.48 2.08-.48 2.97-.17.89.29 1.6.88 2.04 1.49.44.64.59 1.33.61 1.87s-.09.98-.18 1.25-.18.42-.18.42c-.19.4-.46.75-.75 1.02s-.6.44-.92.57c-.64.21-1.22.18-1.67.05-.43-.11-.74-.31-.93-.42-.2-.13-.29-.21-.31-.19 0 0 .05.12.23.28.17.18.47.42.94.59s1.11.27 1.86.03c.36-.1.73-.29 1.08-.57.34-.31.65-.67.9-1.15 0 0 .1-.14.22-.47s.26-.82.27-1.48-.14-1.47-.65-2.25c-.24-.4-.58-.76-.97-1.1-.4-.31-.88-.59-1.41-.79-1.06-.39-2.38-.41-3.64.14-.61.27-1.2.69-1.69 1.21s-.9 1.16-1.2 1.86c-.61 1.4-.73 3.12-.2 4.72.26.78.66 1.54 1.22 2.21.56.64 1.21 1.18 1.94 1.64 1.46.87 3.26 1.26 4.99 1.03 1.76-.23 3.45-1.1 4.69-2.41.39-.39.75-.85 1.06-1.33-.02.22-.05.43-.05.64-.01.56.11 1.16.34 1.75.47 1.15 1.46 2.15 2.57 2.44.54.15 1.08.16 1.51.09s.77-.22 1-.33c.43-.22.92-.59 1.31-1.17s.58-1.41.41-2.22-.72-1.56-1.5-1.93" style="fill: rgb(0, 130, 195);"/><path clip-path="url(#__id2_srkkocmuz3)" d="M539.71 165.1c0 0 .93-1.89.93-2.83 0-1.53-.6-1.95-.84-2.06.38-.34.74-.73 1.09-1.12.36-.41.69-.86.97-1.34.57-.94.93-2 1.17-3.08.25-1.09.15-2.26-.22-3.31-.35-1.06-.92-2.02-1.51-2.94-.6-.92-1.27-1.79-1.88-2.67-.62-.88-1.2-1.79-1.63-2.75-.43-.95-.68-1.96-.6-2.97s.45-1.97 1.08-2.75 1.5-1.35 2.44-1.62c.48-.13.97-.2 1.46-.18.25 0 .49.02.73.06.12.03.24.05.37.08l.07.02.1.02c.05.02.11.04.16.06.89.28 1.62.97 1.99 1.83.19.42.29.88.3 1.35 0 .23-.01.47-.06.68l-.01.09-.01.03-.01.05-.02.09-.03.06c-.04.09-.08.2-.12.3-.19.4-.5.73-.88.95-.38.23-.82.36-1.27.35-.47-.01-.87-.14-1.19-.44-.31-.28-.52-.71-.53-1.14 0-.23.02-.46.11-.62.08-.19.22-.36.39-.47s.38-.19.61-.2c.11-.01.22 0 .32.03.08.02.19.06.27.12.17.12.3.31.33.52.01.1.01.22 0 .33-.02.1-.07.21-.14.27-.15.17-.39.25-.61.18-.1-.02-.2-.09-.26-.18s-.09-.23-.07-.35c.01-.03-.02-.06-.04-.06s-.06.02-.07.03c-.09.29.05.65.38.78.29.12.65.06.9-.15.12-.12.22-.25.27-.43.05-.15.08-.31.06-.46-.02-.34-.17-.65-.43-.89-.12-.11-.27-.19-.44-.25-.15-.06-.31-.08-.48-.1-.33-.01-.66.07-.95.22s-.53.42-.7.71c-.08.15-.14.32-.18.47s-.06.32-.07.48c-.02.65.22 1.31.69 1.8.22.23.51.42.81.56.08.03.17.05.26.08l.05.01.06.01.11.03c.04.02.08.02.12.03-.27.32-.49.67-.64 1.05-.36.88-.34 1.89.04 2.75.2.45.55.81.98 1.01.43.21.93.24 1.37.11.11-.03.22-.07.32-.12s.2-.12.28-.22c.15-.16.26-.4.27-.62.01-.12 0-.23-.03-.35-.03-.1-.08-.21-.16-.29-.15-.19-.42-.23-.61-.14.21-.08.45 0 .58.17.11.16.14.39.11.58s-.12.38-.27.52-.33.2-.54.24c-.39.08-.81.01-1.15-.18-.34-.21-.59-.52-.7-.88-.27-.78-.2-1.6.15-2.31.33-.65.88-1.15 1.55-1.41.23-.06.44-.16.65-.27.56-.3 1.04-.8 1.35-1.36.08-.15.14-.29.2-.45l.03-.11.03-.12.03-.12.03-.1c.07-.31.1-.61.1-.93 0-.62-.13-1.25-.4-1.81-.09-.2-.2-.4-.31-.59.03-.34.14-.67.35-1 .26-.41.66-.76 1.11-1.04s.96-.47 1.48-.63c.53-.14 1.08-.23 1.62-.27-.54-.04-1.1-.04-1.67.04s-1.12.21-1.66.45c-.53.23-1.05.56-1.45 1.05-.16.19-.3.41-.41.63-.5-.48-1.1-.85-1.77-1.05-1.17-.35-2.39-.31-3.52.05s-2.14 1.07-2.86 2c-.73.94-1.13 2.1-1.18 3.25-.07 1.19.25 2.33.74 3.33.48 1.03 1.11 1.93 1.77 2.81.64.87 1.33 1.73 1.94 2.61.35.51.69 1.01.99 1.56.24.66.25 1.4.03 2.08-.12.35-.28.66-.51.95-.11.14-.24.29-.38.41-.12.11-.29.21-.45.29-.33.12-.71.17-1.07.08-.34-.08-.68-.27-.92-.55-.07-.09-.11-.18-.14-.28.12.25.39.42.69.42.43 0 .79-.35.79-.79s-.36-.79-.79-.79c-.08 0-.15.01-.22.03h-.02c-.08.01-.14.05-.21.1l-.01.01c-.02.02-.03.03-.06.04-.13.12-.23.28-.26.46-.08.29-.03.62.15.86.24.31.59.52.96.64s.8.08 1.17-.05c.18-.07.35-.16.51-.3.15-.12.28-.27.42-.41.25-.29.46-.64.59-1.01.13-.35.21-.73.22-1.1.02.05.04.09.06.15.37.97.5 2.06.3 3.1s-.52 2.09-1.04 3.02c-.25.48-.56.92-.91 1.34-.32.42-.71.82-1.07 1.21l-.01.01c-.16.04-.89.36-.89 2.07 0 .95.93 2.83.93 2.83" style="fill: rgb(0, 130, 195);"/><path clip-path="url(#__id2_srkkocmuz3)" d="M507.13 131.18c1.69 0 2.01-.74 2.08-.89l.01-.01c.39-.37.79-.75 1.21-1.08s.86-.64 1.33-.89c.95-.53 1.98-.84 3.03-1.05 1.04-.19 2.11-.06 3.1.3.05.03.1.05.14.07-.38.01-.74.09-1.09.22s-.7.34-1 .59c-.15.13-.29.27-.41.42s-.22.32-.29.51c-.14.38-.16.79-.05 1.16s.33.72.64.96c.24.19.57.23.86.14.18-.02.34-.12.45-.26.02-.01.03-.03.04-.06l.01-.01c.04-.07.08-.12.1-.19v-.03c.02-.07.03-.14.03-.21 0-.45-.35-.79-.79-.79s-.79.34-.79.79c0 .3.17.56.43.69-.1-.04-.21-.08-.29-.15-.28-.24-.47-.57-.56-.92-.09-.36-.05-.74.09-1.06.07-.15.17-.31.29-.45s.25-.25.39-.37c.28-.23.61-.41.96-.52.68-.22 1.42-.2 2.08.04.54.29 1.05.62 1.56.99.88.61 1.73 1.29 2.61 1.93.87.66 1.78 1.3 2.8 1.78s2.16.8 3.33.74c1.16-.05 2.32-.45 3.25-1.18.93-.71 1.64-1.73 2-2.86.37-1.12.39-2.34.06-3.51-.22-.66-.59-1.27-1.07-1.76.23-.12.44-.26.64-.42.48-.41.81-.93 1.04-1.45.25-.53.38-1.1.46-1.67.07-.55.07-1.11.03-1.68-.03.56-.12 1.12-.27 1.64-.14.53-.35 1.04-.63 1.49s-.64.86-1.06 1.11c-.31.19-.64.32-.99.35-.19-.14-.38-.23-.57-.32-.57-.25-1.19-.4-1.82-.4-.31 0-.62.03-.93.11l-.11.03-.11.02-.12.03-.11.03c-.16.06-.31.12-.46.2-.58.3-1.05.78-1.35 1.35-.12.2-.22.42-.28.65-.26.66-.75 1.21-1.4 1.55-.71.35-1.55.41-2.31.16-.36-.12-.68-.37-.88-.71s-.27-.76-.19-1.14c.03-.21.1-.39.24-.54s.32-.25.53-.28c.2-.03.42 0 .59.12.15.12.24.36.16.56.1-.19.05-.44-.12-.61-.09-.07-.2-.12-.3-.15s-.23-.03-.34-.03c-.23.01-.46.11-.63.27-.09.09-.16.18-.22.29-.05.09-.09.2-.13.32-.13.44-.09.94.12 1.36s.56.79 1.02.97c.84.38 1.86.4 2.75.05.38-.15.72-.37 1.04-.63 0 .03.01.07.02.12l.03.11.02.07.02.04c.03.08.06.17.09.24.13.31.33.58.56.82.48.46 1.14.71 1.78.67.17 0 .33-.02.49-.06.14-.04.32-.09.47-.18.3-.16.54-.41.7-.7.16-.28.24-.62.22-.95-.01-.16-.03-.31-.09-.48s-.15-.32-.27-.45c-.22-.24-.54-.4-.86-.42-.16-.01-.33.01-.48.06-.17.05-.31.15-.42.28-.21.24-.27.61-.16.9.13.32.48.46.77.36.03 0 .04-.02.04-.05s-.03-.06-.07-.04c-.11.01-.25-.02-.33-.08-.1-.07-.17-.16-.2-.27-.06-.23.02-.47.2-.61.07-.07.17-.12.27-.14s.22-.02.32 0c.22.03.41.15.53.34.05.08.1.17.11.27.03.11.04.21.04.31-.01.22-.08.43-.2.61s-.29.3-.48.39c-.17.08-.41.12-.62.11-.44-.01-.86-.22-1.15-.52-.3-.33-.43-.72-.43-1.19-.01-.44.1-.9.34-1.27s.57-.68.96-.88c.09-.04.19-.09.3-.11l.07-.03.07-.03.06-.01.04-.01.08-.02c.23-.04.46-.07.69-.05.47 0 .93.1 1.35.29.85.38 1.54 1.1 1.83 1.99.01.05.04.11.05.16l.03.09.02.09c.04.1.05.23.08.35.04.24.05.48.06.73.01.5-.05.99-.19 1.46-.27.95-.84 1.81-1.62 2.45-.76.62-1.74 1-2.75 1.07-1.01.08-2.03-.17-2.98-.59s-1.85-1.01-2.74-1.62c-.89-.62-1.75-1.29-2.67-1.9-.92-.59-1.88-1.16-2.94-1.52-1.07-.36-2.23-.47-3.33-.22-1.07.24-2.12.61-3.07 1.17-.48.29-.91.62-1.33.98-.4.34-.77.71-1.15 1.08-.09-.24-.51-.82-2.03-.82-.95 0-2.83.92-2.83.92s1.89.93 2.83.93" style="fill: rgb(0, 130, 195);"/><path clip-path="url(#__id2_srkkocmuz3)" d="M538.77 340.28c0 1.7.73 2.02.89 2.07l.01.01c.37.4.74.79 1.07 1.21.35.41.66.86.91 1.32.52.95.84 1.99 1.04 3.05.2 1.03.06 2.11-.3 3.09-.02.05-.04.1-.06.14-.01-.38-.09-.74-.22-1.08-.14-.38-.34-.72-.59-1.01-.13-.16-.27-.29-.42-.42s-.33-.23-.51-.29c-.37-.14-.79-.15-1.17-.05s-.72.33-.96.64c-.18.25-.23.57-.15.86.03.19.13.33.26.45.03.01.04.02.06.04l.03.02c.05.04.11.08.19.1h.02c.07.02.14.04.21.04.43 0 .79-.36.79-.79s-.36-.79-.79-.79c-.31 0-.57.16-.69.44.02-.11.07-.21.14-.3.24-.29.57-.48.92-.56s.73-.05 1.06.09c.16.07.32.16.45.28.14.12.26.26.38.39.23.29.39.62.51.97.22.67.21 1.42-.03 2.07-.29.54-.64 1.06-.99 1.57-.61.87-1.3 1.71-1.94 2.6-.65.88-1.28 1.79-1.77 2.81-.5 1.01-.81 2.16-.74 3.32.05 1.16.45 2.32 1.18 3.26s1.73 1.63 2.86 2.01c1.13.37 2.35.39 3.52.05.66-.21 1.27-.58 1.77-1.06.11.22.25.43.41.63.41.47.93.81 1.45 1.04.54.24 1.09.37 1.66.45s1.13.08 1.67.04c-.54-.04-1.09-.13-1.62-.26-.52-.15-1.04-.36-1.48-.63-.45-.29-.85-.64-1.11-1.06-.2-.32-.32-.65-.35-1 .12-.18.22-.37.31-.57.26-.57.4-1.19.4-1.82 0-.31-.04-.63-.1-.93l-.02-.12-.03-.12-.03-.11-.03-.11c-.06-.15-.12-.31-.2-.45-.31-.57-.78-1.05-1.34-1.37-.21-.1-.43-.2-.66-.27-.66-.25-1.22-.75-1.55-1.41-.35-.7-.42-1.54-.15-2.3.11-.36.36-.68.7-.88s.76-.27 1.15-.19c.21.05.39.11.54.24s.24.32.27.52.01.43-.11.59c-.13.15-.37.25-.58.17.2.08.46.04.61-.13.08-.09.13-.19.16-.29s.04-.22.03-.35c-.01-.22-.11-.44-.27-.62-.08-.09-.17-.17-.28-.23s-.21-.1-.32-.12c-.44-.14-.95-.1-1.37.11s-.79.58-.98 1.02c-.38.84-.4 1.86-.04 2.76.15.38.36.71.64 1.04-.04 0-.08.01-.12.02l-.11.02-.06.01-.05.02c-.08.03-.18.05-.26.09-.3.13-.59.33-.81.56-.46.48-.71 1.14-.68 1.78.01.16.03.32.06.48s.1.32.18.48c.16.29.4.53.7.69s.62.25.95.23c.16-.01.32-.04.48-.09.17-.06.32-.13.44-.25.26-.23.41-.55.43-.87.02-.17-.01-.33-.06-.47-.05-.17-.15-.32-.28-.43-.24-.21-.61-.27-.9-.16-.32.13-.47.49-.38.78.01.02.04.05.07.05.03-.02.05-.04.04-.07-.02-.12.02-.25.07-.34.06-.1.16-.18.26-.19.23-.07.47.01.61.18.07.08.12.18.14.27.01.11.01.22 0 .33-.03.21-.16.41-.33.54-.08.05-.18.11-.27.12-.11.04-.22.04-.33.04-.22-.01-.42-.08-.6-.21-.17-.11-.32-.27-.39-.47-.09-.17-.12-.41-.11-.63.01-.44.21-.85.52-1.14.32-.3.72-.43 1.19-.44.44-.01.89.1 1.27.34s.68.56.88.96c.04.1.09.2.12.31l.03.07.02.06.01.06.01.04.01.08c.05.23.06.46.06.7 0 .46-.11.92-.3 1.34-.37.85-1.1 1.54-1.99 1.84-.05.02-.11.04-.16.06l-.1.02-.07.01c-.13.05-.25.06-.37.07-.25.04-.49.07-.73.08-.49.01-.99-.05-1.46-.19-.95-.27-1.81-.84-2.44-1.61-.63-.78-1-1.75-1.08-2.76-.08-1 .17-2.03.6-2.97.42-.96 1.01-1.86 1.63-2.74.61-.89 1.28-1.75 1.88-2.66.59-.92 1.16-1.89 1.51-2.95.37-1.06.47-2.23.22-3.31s-.6-2.13-1.17-3.08c-.28-.48-.61-.92-.97-1.32-.35-.41-.71-.77-1.08-1.14.24-.1.84-.53.84-2.05 0-.95-.94-2.83-.94-2.83s-.92 1.88-.92 2.83" style="fill: rgb(0, 130, 195);"/><path clip-path="url(#__id2_srkkocmuz3)" d="M504.29 372.29c0 0 1.89.93 2.83.93 1.53 0 1.94-.61 2.03-.84.38.37.74.74 1.15 1.08.41.37.85.69 1.33.98.95.56 2.01.93 3.07 1.18 1.1.25 2.26.14 3.32-.22s2.02-.92 2.95-1.52 1.78-1.26 2.67-1.88 1.78-1.22 2.73-1.63 1.97-.67 2.98-.58c1.01.07 1.98.45 2.75 1.07.78.62 1.35 1.49 1.62 2.44.14.48.2.97.19 1.46-.01.25-.03.49-.06.74-.03.12-.05.23-.08.36l-.02.08-.03.1c-.02.05-.04.1-.05.17-.3.89-.99 1.62-1.83 2-.41.19-.88.29-1.35.29-.23.01-.46-.01-.69-.05l-.09-.01h-.03l-.06-.02-.07-.02-.07-.03c-.11-.03-.21-.07-.31-.12-.39-.2-.72-.5-.96-.89-.24-.37-.35-.82-.34-1.26.01-.47.13-.87.43-1.19.29-.32.71-.51 1.14-.52.22 0 .45.01.63.11.19.08.36.22.48.4s.19.39.2.6c.01.11-.01.23-.04.34-.02.09-.06.19-.12.27-.12.16-.31.3-.52.34-.11.01-.23.01-.34-.01-.09-.02-.19-.06-.27-.13-.16-.15-.24-.38-.18-.61.03-.1.1-.21.2-.27.08-.06.22-.09.33-.06.04 0 .07-.03.07-.05 0-.04-.01-.06-.04-.06-.29-.1-.64.05-.77.37-.11.28-.05.65.16.91.1.12.25.21.41.28.15.04.32.07.48.06.32-.03.64-.18.86-.43.11-.12.2-.27.26-.43s.08-.32.09-.48c.02-.32-.06-.66-.22-.95-.17-.29-.41-.52-.71-.7-.15-.08-.33-.14-.47-.17s-.32-.06-.48-.07c-.64-.02-1.31.21-1.78.68-.24.22-.43.51-.56.83-.03.06-.07.15-.09.23l-.02.05-.02.07-.03.11c-.01.03-.02.07-.02.11-.32-.27-.66-.49-1.04-.63-.89-.36-1.91-.34-2.75.03-.46.2-.82.56-1.02.98-.21.44-.25.93-.12 1.38.04.1.08.22.13.32s.14.19.22.28c.18.15.4.25.63.27.12.01.23 0 .34-.03s.21-.07.3-.15c.16-.16.22-.41.12-.61.08.21-.01.45-.16.57-.17.11-.39.14-.59.11-.21-.03-.39-.12-.52-.27-.14-.14-.21-.34-.24-.54-.08-.4-.01-.82.19-1.15s.52-.59.88-.71c.77-.27 1.6-.19 2.31.16.64.32 1.15.88 1.4 1.54.06.22.16.45.27.66.31.57.79 1.04 1.37 1.34.14.08.29.14.45.19l.11.05.12.03.11.03.11.03c.31.07.62.1.93.1.63 0 1.25-.14 1.82-.39.2-.09.39-.2.58-.31.34.03.67.15.99.35.41.26.77.66 1.04 1.1.28.46.48.96.63 1.49s.23 1.08.27 1.63c.04-.55.03-1.11-.03-1.68-.08-.56-.21-1.12-.45-1.66s-.57-1.04-1.04-1.45c-.19-.17-.41-.31-.64-.41.48-.49.86-1.11 1.07-1.77.33-1.16.31-2.39-.06-3.52s-1.08-2.15-2.01-2.85c-.94-.72-2.1-1.13-3.25-1.19-1.17-.06-2.32.26-3.33.74s-1.93 1.13-2.81 1.77-1.72 1.33-2.61 1.95c-.51.36-1.02.69-1.56.99-.65.24-1.4.27-2.08.02-.34-.11-.67-.28-.96-.5-.14-.12-.27-.24-.4-.38s-.22-.28-.29-.45c-.14-.33-.17-.71-.09-1.05.08-.36.28-.68.56-.92.08-.07.18-.13.29-.16-.25.14-.43.4-.43.7 0 .44.36.79.79.79s.79-.36.79-.79c0-.07-.01-.14-.02-.21l-.01-.01c-.02-.08-.05-.16-.1-.21l-.01-.01c-.01-.02-.03-.04-.04-.06-.11-.13-.27-.24-.46-.26-.29-.08-.61-.03-.86.15-.31.23-.53.58-.64.95s-.09.8.05 1.16c.07.19.17.36.29.52s.26.29.41.42c.3.25.64.45 1 .59s.72.2 1.09.23c-.04.01-.09.04-.14.05-.98.38-2.05.51-3.09.3-1.05-.19-2.08-.53-3.02-1.04-.47-.26-.91-.56-1.33-.9s-.82-.7-1.22-1.08c-.06-.15-.38-.89-2.08-.89-.95 0-2.83.93-2.83.93" style="fill: rgb(0, 130, 195);"/><path clip-path="url(#__id2_srkkocmuz3)" d="M39.35 162.27c0-1.71-.73-2.03-.89-2.07l-.01-.01c-.36-.4-.74-.79-1.07-1.21-.35-.42-.65-.87-.91-1.34-.51-.93-.83-1.97-1.04-3.02s-.07-2.12.29-3.1c.03-.06.05-.1.07-.15.01.37.08.75.22 1.1.14.37.34.71.59 1.01.12.14.26.29.42.41.16.13.32.22.51.3.37.13.79.16 1.17.05s.71-.32.95-.64c.18-.24.23-.57.16-.86-.04-.18-.14-.34-.27-.46-.02-.01-.03-.02-.05-.04-.01-.01-.03-.01-.03-.01-.06-.05-.13-.09-.2-.11h-.02c-.07-.02-.14-.03-.21-.03-.44 0-.79.35-.79.79s.35.79.79.79c.3 0 .56-.17.69-.42-.03.1-.08.19-.15.28-.23.28-.56.48-.92.55-.36.09-.73.05-1.06-.08-.16-.08-.32-.17-.45-.29-.13-.12-.27-.27-.38-.41-.22-.29-.39-.6-.51-.95-.22-.68-.21-1.41.03-2.08.29-.55.63-1.05.99-1.56.62-.88 1.29-1.74 1.94-2.61s1.28-1.78 1.77-2.81c.49-1 .81-2.15.74-3.33-.06-1.15-.47-2.31-1.18-3.25s-1.73-1.64-2.85-2-2.36-.4-3.53-.05c-.66.2-1.27.58-1.77 1.05-.11-.23-.25-.45-.42-.64-.4-.48-.92-.82-1.45-1.04-.53-.24-1.09-.38-1.65-.45s-1.13-.07-1.67-.04c.54.04 1.1.13 1.63.27.53.15 1.04.36 1.49.63s.85.63 1.1 1.04c.21.33.32.66.35 1-.11.19-.22.39-.31.59-.26.56-.4 1.19-.4 1.81 0 .32.04.62.1.93l.03.1.02.12.04.12.04.11c.05.16.12.3.19.45.31.56.78 1.06 1.35 1.36.2.11.43.21.65.27.66.25 1.22.76 1.55 1.41.36.71.42 1.54.15 2.31-.11.36-.36.67-.7.88-.34.2-.76.27-1.15.18-.21-.04-.39-.11-.54-.24-.14-.14-.25-.32-.28-.52-.02-.2 0-.43.12-.58.13-.17.36-.25.57-.17-.2-.09-.45-.05-.61.14-.08.07-.12.18-.15.29-.03.11-.05.23-.04.35.02.22.11.46.27.62.08.09.18.16.28.22.11.05.22.1.32.12.45.14.93.11 1.38-.11.43-.2.78-.57.98-1.01.38-.86.4-1.87.04-2.75-.15-.39-.37-.73-.64-1.05.04-.01.08-.01.12-.03l.11-.03.06-.01.05-.01c.09-.03.17-.05.25-.08.3-.14.58-.34.81-.56.47-.48.72-1.15.68-1.8 0-.16-.03-.33-.06-.48s-.11-.32-.18-.47c-.16-.29-.42-.54-.7-.71s-.62-.23-.95-.22c-.16.01-.33.04-.47.1-.17.05-.32.14-.45.25-.25.23-.4.55-.43.89-.01.15.02.31.06.46.06.18.15.31.27.43.25.21.62.27.91.15.32-.13.47-.49.37-.78-.01-.02-.03-.04-.06-.03s-.05.03-.05.06c.01.11-.01.25-.07.35s-.17.17-.27.18c-.23.07-.46-.02-.6-.18-.07-.06-.12-.18-.15-.27-.01-.11-.01-.23 0-.33.03-.21.16-.4.34-.52.08-.06.18-.1.27-.12.11-.03.22-.05.32-.03.22.01.44.08.61.2s.31.29.4.47c.09.17.11.4.11.62-.02.43-.22.86-.53 1.14-.32.3-.73.43-1.19.44s-.9-.11-1.27-.35c-.39-.22-.69-.55-.88-.95-.05-.11-.1-.21-.12-.3l-.03-.06-.01-.09-.01-.05-.01-.03-.02-.09c-.05-.21-.06-.45-.06-.68.01-.47.11-.93.3-1.35.36-.86 1.11-1.55 1.99-1.83.06-.02.12-.04.17-.06l.09-.02.09-.02c.12-.03.23-.05.36-.08.24-.04.49-.06.73-.06.5-.02.99.06 1.46.18.94.27 1.82.85 2.45 1.62s1 1.74 1.07 2.75-.17 2.02-.59 2.97c-.42.96-1.01 1.87-1.64 2.75s-1.28 1.75-1.87 2.67c-.61.92-1.17 1.88-1.53 2.94-.36 1.05-.47 2.21-.22 3.31.24 1.07.61 2.13 1.17 3.08.28.47.61.93.98 1.34.34.39.7.78 1.08 1.12-.24.11-.83.54-.83 2.06 0 .95.92 2.83.92 2.83s.93-1.89.93-2.83" style="fill: rgb(0, 130, 195);"/><path clip-path="url(#__id2_srkkocmuz3)" d="M73.82 130.25c0 0-1.89-.92-2.82-.92-1.52 0-1.93.59-2.04.82-.37-.37-.75-.74-1.14-1.08-.4-.36-.85-.69-1.33-.98-.94-.56-2-.93-3.07-1.17-1.09-.25-2.25-.14-3.31.22s-2.03.92-2.94 1.52c-.92.61-1.78 1.27-2.67 1.9-.88.61-1.77 1.2-2.73 1.62s-1.98.67-2.98.59c-1.01-.07-1.98-.45-2.75-1.07-.77-.64-1.33-1.5-1.61-2.45-.14-.47-.2-.96-.19-1.46 0-.25.02-.49.06-.73.03-.12.05-.25.09-.35l.02-.09.02-.09c.02-.05.03-.11.06-.16.29-.89.98-1.62 1.83-1.99.42-.2.88-.29 1.35-.29.23-.02.46.01.69.05l.08.02.04.01.05.01.08.03.07.03c.1.02.21.08.3.11.39.2.73.51.96.88s.35.83.35 1.27c-.01.47-.15.87-.44 1.19-.29.31-.71.51-1.15.52-.21.01-.45-.04-.62-.11-.19-.09-.36-.22-.47-.39s-.19-.39-.21-.61c0-.1.01-.21.03-.31s.06-.19.12-.27c.12-.18.31-.3.53-.34.11-.02.22-.02.33 0s.2.08.28.14c.16.14.24.38.18.61-.02.1-.1.2-.19.27s-.22.09-.34.08c-.03-.01-.05.01-.07.04 0 .02.02.05.05.05.29.1.64-.04.77-.36.11-.29.06-.66-.16-.9-.11-.13-.25-.23-.42-.28-.14-.05-.31-.07-.47-.06-.33.02-.65.18-.88.42-.11.12-.2.27-.26.45s-.08.32-.09.48c-.02.32.06.66.23.94.16.29.41.54.7.7.14.09.32.14.47.18.16.03.32.06.48.06.66.03 1.32-.21 1.79-.67.24-.24.43-.51.56-.82.03-.07.07-.16.09-.24l.01-.04.02-.07.03-.11c.01-.04.01-.08.02-.12.33.27.67.49 1.05.63.89.36 1.91.33 2.75-.05.44-.18.81-.55 1.02-.97s.25-.92.11-1.36c-.02-.12-.07-.23-.12-.32-.05-.11-.13-.2-.22-.29-.17-.15-.4-.26-.62-.27-.11 0-.23.01-.34.03s-.22.08-.3.15c-.17.17-.22.42-.12.61-.09-.2 0-.44.15-.56.17-.12.4-.15.59-.12.21.03.39.14.52.28s.2.33.25.54c.07.39 0 .81-.21 1.15s-.51.59-.88.71c-.76.25-1.6.18-2.3-.16-.66-.33-1.15-.89-1.41-1.54-.06-.23-.16-.45-.27-.65-.32-.57-.79-1.05-1.37-1.35-.14-.07-.29-.14-.44-.2l-.11-.03-.12-.03-.11-.02-.11-.03c-.29-.08-.61-.11-.92-.11-.62 0-1.24.15-1.81.4-.21.09-.4.18-.58.32-.34-.03-.67-.16-.99-.35-.42-.25-.77-.66-1.05-1.11s-.48-.96-.62-1.49c-.15-.52-.23-1.07-.27-1.64-.03.56-.03 1.12.04 1.68.08.57.21 1.14.45 1.67.23.52.56 1.04 1.04 1.45.19.16.41.3.64.42-.49.49-.85 1.1-1.07 1.76-.35 1.17-.31 2.4.05 3.52.37 1.14 1.07 2.15 2 2.86.93.73 2.09 1.13 3.25 1.18 1.17.07 2.32-.25 3.33-.74s1.93-1.12 2.81-1.78c.88-.63 1.73-1.31 2.61-1.93.5-.36 1.02-.69 1.55-.99.67-.25 1.4-.26 2.08-.04.34.12.66.3.94.53.15.11.29.24.4.37.12.14.21.3.29.45.13.33.17.7.08 1.06-.08.35-.28.68-.55.92-.08.07-.18.11-.29.15.25-.13.42-.39.42-.69 0-.45-.35-.79-.8-.79-.43 0-.78.34-.78.79 0 .07.01.14.03.21v.03c.03.07.05.12.1.19l.01.01c.02.03.03.05.04.06.12.14.27.24.46.26.28.09.61.04.86-.14.31-.24.53-.58.64-.96s.09-.79-.05-1.16c-.07-.19-.17-.35-.3-.51s-.27-.29-.42-.42c-.3-.25-.63-.46-1.01-.59-.34-.13-.71-.2-1.08-.22.04-.02.09-.04.13-.07.99-.36 2.06-.49 3.11-.3 1.05.21 2.08.52 3.03 1.05.46.25.91.55 1.33.89s.82.71 1.21 1.08l.01.02c.06.15.38.89 2.07.89.94 0 2.82-.93 2.82-.93" style="fill: rgb(0, 130, 195);"/><path clip-path="url(#__id2_srkkocmuz3)" d="M38.42 337.44c0 0-.93 1.88-.93 2.83 0 1.52.6 1.95.84 2.05-.38.37-.73.73-1.08 1.14-.36.41-.7.85-.98 1.32-.56.95-.93 2-1.17 3.08-.25 1.08-.14 2.25.22 3.31s.92 2.02 1.52 2.95c.6.91 1.26 1.77 1.88 2.66s1.21 1.79 1.63 2.74c.42.94.67 1.97.59 2.97-.07 1.01-.45 1.99-1.07 2.76-.63.77-1.5 1.34-2.45 1.61-.47.14-.97.2-1.46.19-.25-.01-.49-.04-.73-.08-.13-.01-.24-.02-.36-.07l-.09-.01-.09-.02c-.05-.01-.12-.04-.17-.06-.89-.3-1.62-.99-1.99-1.84-.19-.42-.29-.88-.3-1.34-.01-.23.01-.47.06-.7l.02-.08.01-.04.01-.06.01-.06.03-.07c.03-.11.07-.21.12-.31.19-.4.48-.73.87-.96s.83-.35 1.28-.34c.46.01.86.14 1.19.44.31.29.51.7.53 1.14 0 .22-.03.45-.11.63-.08.19-.23.36-.4.47-.18.13-.39.2-.61.21-.1 0-.21 0-.32-.04-.09-.01-.19-.07-.27-.12-.17-.12-.3-.32-.34-.54-.02-.1-.02-.21 0-.33.02-.09.08-.19.14-.27.15-.17.38-.25.61-.18.1.01.2.09.27.19.06.09.08.21.07.34-.01.03.01.04.05.07.03 0 .05-.02.06-.05.1-.29-.05-.65-.37-.78-.29-.1-.66-.05-.9.16-.13.11-.23.26-.28.43-.04.14-.07.31-.06.47.02.31.18.64.43.87.12.12.27.19.45.25.15.05.31.08.47.09.32.02.66-.06.95-.23s.54-.4.7-.69c.08-.16.14-.32.18-.48s.06-.33.06-.48c.04-.64-.22-1.3-.68-1.78-.22-.24-.5-.43-.81-.56-.08-.03-.16-.06-.25-.09l-.05-.02-.06-.01-.11-.02c-.04-.01-.08-.02-.12-.02.27-.33.49-.66.64-1.04.35-.9.33-1.92-.04-2.76-.19-.44-.55-.82-.98-1.02s-.93-.25-1.38-.11c-.1.02-.21.07-.32.12-.1.05-.19.14-.28.23-.16.18-.25.4-.27.62 0 .12.01.23.03.35.04.1.08.2.16.29.16.18.42.22.62.13-.21.08-.44-.01-.57-.17-.12-.16-.14-.39-.12-.59.03-.2.14-.39.28-.52.15-.13.34-.19.54-.24.4-.08.81-.02 1.15.19.34.2.59.52.7.88.26.76.19 1.6-.15 2.3-.33.65-.89 1.15-1.55 1.41-.23.07-.45.17-.66.27-.57.32-1.04.8-1.35 1.37-.07.13-.13.3-.19.45l-.04.11-.04.11-.02.12-.03.12c-.06.29-.11.62-.11.93 0 .62.14 1.25.4 1.82.08.2.19.39.31.57-.03.35-.15.68-.34 1-.26.42-.66.76-1.11 1.06-.45.27-.96.48-1.49.63-.53.13-1.08.22-1.63.26.54.04 1.11.03 1.67-.04s1.12-.21 1.65-.45 1.05-.57 1.46-1.04c.16-.2.3-.41.41-.63.5.48 1.11.85 1.77 1.06 1.17.34 2.4.31 3.53-.05 1.12-.38 2.13-1.07 2.85-2.01s1.12-2.1 1.18-3.26-.25-2.31-.74-3.32-1.12-1.94-1.77-2.81c-.65-.89-1.32-1.73-1.94-2.6-.36-.51-.7-1.02-.99-1.57-.24-.65-.26-1.4-.03-2.07.12-.35.29-.67.51-.97.11-.13.24-.28.38-.39s.28-.21.44-.28c.34-.14.71-.17 1.07-.09s.68.27.92.56c.08.09.12.18.15.3-.13-.27-.4-.44-.69-.44-.44 0-.79.35-.79.79s.35.79.79.79c.07 0 .14-.01.21-.04h.02c.07-.02.14-.05.2-.1 0 0 .01-.02.02-.02 0 0 .03-.02.05-.04.13-.12.23-.27.26-.45.07-.28.03-.61-.15-.86-.24-.31-.58-.53-.95-.64-.39-.1-.79-.08-1.17.05-.19.07-.36.16-.52.29s-.3.26-.42.42c-.25.29-.46.63-.59 1.01-.14.34-.2.7-.22 1.08-.02-.05-.04-.1-.07-.14-.36-.98-.5-2.06-.3-3.09.2-1.05.52-2.1 1.04-3.05.26-.46.56-.9.91-1.32.33-.43.7-.82 1.07-1.21l.01-.01c.15-.05.89-.37.89-2.07 0-.95-.93-2.83-.93-2.83" style="fill: rgb(0, 130, 195);"/><path clip-path="url(#__id2_srkkocmuz3)" d="M71 371.36c-1.7 0-2.02.74-2.07.89h-.01c-.4.38-.8.74-1.22 1.08s-.86.64-1.33.9c-.94.52-1.98.85-3.02 1.04-1.04.2-2.12.07-3.11-.3-.04-.01-.09-.04-.13-.05.38-.02.74-.1 1.08-.23.38-.14.72-.34 1.01-.59.15-.13.29-.26.42-.42s.23-.34.3-.52c.13-.37.15-.78.05-1.16s-.33-.72-.64-.95c-.25-.18-.57-.24-.86-.15-.19.03-.34.13-.46.26l-.04.05 0 .01c-.06.06-.08.14-.11.22v.01c-.02.07-.03.14-.03.21 0 .43.36.79.78.79.45 0 .8-.36.8-.79 0-.3-.17-.56-.43-.7.1.04.21.09.29.16.28.23.48.56.55.92.09.34.05.72-.08 1.05-.08.17-.16.32-.29.45-.11.14-.25.27-.4.38-.28.22-.6.39-.94.5-.68.24-1.42.22-2.08-.02-.53-.29-1.06-.63-1.55-.99-.88-.62-1.73-1.3-2.61-1.95s-1.79-1.28-2.81-1.77c-1.01-.48-2.16-.8-3.33-.74s-2.31.47-3.25 1.19c-.93.7-1.64 1.72-2 2.85s-.4 2.36-.05 3.52c.21.66.57 1.28 1.07 1.77-.24.1-.45.24-.65.41-.48.41-.81.92-1.04 1.45s-.37 1.09-.45 1.66-.07 1.12-.04 1.68c.04-.55.12-1.11.27-1.63s.35-1.03.62-1.49c.28-.44.64-.84 1.05-1.1.32-.2.66-.32.99-.35.19.11.38.22.59.31.57.25 1.18.39 1.81.39.31 0 .63-.03.93-.1l.11-.03.11-.03.12-.02.12-.05c.15-.04.3-.11.43-.19.59-.3 1.07-.77 1.37-1.34.11-.21.21-.44.27-.66.26-.66.76-1.22 1.41-1.54.7-.35 1.54-.43 2.31-.16.36.11.67.37.87.71s.27.75.21 1.15c-.05.2-.11.4-.25.53s-.32.24-.52.27c-.19.03-.41 0-.59-.11-.15-.12-.24-.36-.16-.57-.1.19-.04.45.13.61.08.08.18.13.29.15s.23.05.34.04c.23-.02.46-.12.62-.27.09-.08.16-.17.22-.28s.1-.22.12-.32c.14-.45.09-.94-.11-1.38-.19-.42-.57-.78-1.02-.98-.85-.37-1.86-.39-2.75-.04-.38.14-.73.36-1.05.63 0-.04-.01-.09-.02-.11l-.03-.11-.02-.07-.01-.05c-.02-.08-.06-.17-.09-.23-.13-.31-.32-.61-.56-.83-.48-.47-1.13-.71-1.78-.68-.16 0-.33.03-.49.07s-.32.1-.47.17c-.3.18-.54.41-.7.7s-.25.63-.23.95c.01.16.03.32.09.48s.14.31.26.43c.23.25.54.4.88.43.16.01.33-.02.47-.06.17-.06.31-.16.42-.28.22-.26.27-.63.16-.91-.14-.32-.48-.47-.77-.37-.03 0-.05.02-.05.06.01.02.04.05.07.05.12-.02.24 0 .34.06s.16.17.19.27c.06.23-.02.46-.18.61-.08.07-.18.11-.28.13s-.22.03-.33.01c-.21-.04-.4-.18-.53-.34-.06-.08-.11-.18-.12-.27-.02-.11-.04-.23-.03-.34.01-.21.08-.42.21-.6s.28-.31.47-.4c.18-.1.42-.11.62-.11.44.01.86.21 1.15.53s.42.72.44 1.19c.01.44-.11.89-.34 1.26-.23.39-.57.69-.96.89-.1.04-.2.08-.3.12l-.07.03-.08.02-.05.02h-.04l-.08.01c-.22.04-.46.07-.69.05-.47 0-.92-.09-1.35-.29-.85-.38-1.53-1.11-1.83-1.99-.03-.06-.04-.11-.06-.17l-.02-.1-.02-.08c-.04-.12-.06-.24-.09-.36-.03-.24-.05-.49-.06-.74-.01-.49.05-.98.19-1.46.27-.95.84-1.82 1.61-2.44s1.75-1.01 2.75-1.08c1-.09 2.03.16 2.98.58s1.85 1.02 2.73 1.64c.89.62 1.76 1.28 2.68 1.88.91.6 1.88 1.16 2.94 1.52s2.23.48 3.31.22 2.13-.62 3.07-1.18c.48-.28.92-.61 1.33-.98.4-.34.77-.71 1.14-1.08.1.24.52.84 2.04.84.94 0 2.82-.93 2.82-.93s-1.89-.93-2.82-.93" style="fill: rgb(0, 130, 195);"/></g></g></svg>