<svg xmlns="http://www.w3.org/2000/svg" xmlns:xlink="http://www.w3.org/1999/xlink" preserveAspectRatio="xMidYMid meet" version="1.0" viewBox="-0.2 -0.4 397.0 389.7" zoomAndPan="magnify" style="fill: rgb(0, 0, 0);" original_string_length="3368" width="34.3921634428541px" height="33.766851380256746px"><g id="__id22_s4j52xlzcm"><path d="M93.91,237.72c0-1.28,.07-2.39-.01-3.49-.52-6.72-.17-13.41,.38-20.11,1.01-12.46,3.59-24.59,7.73-36.39,4.98-14.2,12.11-27.22,21.9-38.7,7.68-8.99,16.66-16.43,27.22-21.83,9.76-4.98,20.11-7.73,31.12-7.33,12.75,.46,24.28,4.51,34.24,12.56,11.67,9.43,18.48,21.73,20.95,36.48,2,11.95,.54,23.55-3.61,34.86-5.1,13.89-13.52,25.54-24.47,35.36-11.59,10.4-24.98,17.69-39.85,22.25-7.61,2.34-15.39,3.82-23.33,4.51-5.3,.46-10.59,.5-15.88,.21-7.82-.43-15.53-1.72-23.07-3.87-.41-.12-.82-.27-1.24-.36-.91-.2-1.16-.03-1,.92,.36,2.12,.77,4.24,1.26,6.34,3.72,16.08,10.13,30.99,19.64,44.51,10.55,15,23.83,26.99,39.87,35.94,12.11,6.75,25.04,11.17,38.6,13.83,6.16,1.21,12.39,1.99,18.66,2.42,5.72,.39,11.44,.73,17.17,.57,6.77-.18,13.52-.58,20.27-1.28,9.68-1.01,19.27-2.5,28.8-4.47,10.19-2.1,20.29-4.53,30.33-7.27,10.15-2.77,20.23-5.79,30.32-8.78,10.21-3.02,20.33-6.33,30.48-9.55,.56-.18,1.11-.41,1.63-.6,0-.67-.43-.87-.76-1.1-5.66-3.97-10.74-8.65-16.11-12.98-4.98-4.02-9.92-8.11-14.62-12.47-1.09-1.01-2.18-2.02-2.98-3.27-1.43-2.26-.83-4.96,1.31-6.07,1.54-.8,3.26-.69,4.43,.6,2.79,3.1,6.28,5.34,9.52,7.88,5.13,4.04,10.14,8.23,15.14,12.41,4.4,3.68,8.91,7.2,13.75,10.28,.83,.53,1.66,1.07,2.41,1.7,1.99,1.66,2.6,3.81,2.11,6.31-.67,3.41-2.07,6.57-3.36,9.76-3.87,9.54-8.45,18.75-12.88,28.03-3.1,6.5-6.18,13.02-8.96,19.67-.41,.98-.95,1.86-1.77,2.56-1.56,1.32-3.34,1.55-4.96,.64-1.51-.85-2.4-2.74-2.09-4.59,.12-.72,.34-1.45,.62-2.12,2.28-5.39,4.72-10.71,7.23-15.99,4.06-8.57,8.28-17.07,12.11-25.75,.96-2.19,2-4.35,2.72-6.64-.71-.43-1.26,.05-1.8,.22-10.16,3.19-20.27,6.5-30.48,9.53-15.69,4.65-31.37,9.36-47.3,13.13-10.66,2.53-21.37,4.78-32.22,6.34-6.21,.89-12.45,1.59-18.71,2.07-7.13,.54-14.27,.79-21.41,.63-11.96-.27-23.81-1.56-35.49-4.24-11.77-2.7-23.02-6.77-33.69-12.42-10.4-5.51-19.88-12.31-28.41-20.43-11.23-10.69-20.23-23.01-27.08-36.9-5.8-11.78-9.84-24.16-12.1-37.1-.25-1.45-.55-2.9-.72-4.37-.13-1.16-.62-1.84-1.75-2.31-5.3-2.2-10.38-4.82-15.28-7.82-6.75-4.12-13.04-8.85-18.94-14.11-11.4-10.19-20.76-22.05-28.61-35.11-8.87-14.76-15.41-30.54-20.19-47.07-2.43-8.41-4.43-16.91-5.99-25.51-1.39-7.63-2.43-15.31-3.21-23.04C.12,81.39-.24,67.92,.14,54.42c.18-6.46,.64-12.91,1.34-19.34,.75-6.92,1.69-13.81,3.39-20.57,.9-3.58,1.89-7.15,3.66-10.43,.56-1.03,1.12-2.06,1.96-2.9,1.39-1.39,3.51-1.57,5.07-.47,1.19,.84,2.24,3.06,1.26,4.77-2.37,4.16-2.92,8.85-3.88,13.42-1.1,5.24-1.87,10.54-2.47,15.86-.32,2.87-.64,5.75-.82,8.64-.53,8.67-.98,17.35-.72,26.04,.23,7.63,.57,15.25,1.28,22.86,1.26,13.63,3.46,27.1,6.78,40.38,2.98,11.91,6.88,23.51,11.91,34.72,5.13,11.46,11.35,22.28,18.92,32.3,11.85,15.66,26.22,28.36,43.88,37.15,.64,.32,1.26,.76,2.22,.86Zm8.75-10.76c0,4.44,.13,8.87,.49,13.29,.09,1.12,.54,1.61,1.54,1.94,8.98,3.01,18.22,4.67,27.67,5.11,3.93,.18,7.87,.1,11.82-.19,5.85-.43,11.62-1.3,17.29-2.72,16.57-4.15,31.27-11.82,43.76-23.54,7.62-7.15,13.76-15.44,18.14-24.97,4.82-10.51,6.97-21.5,5.62-33.07-1.19-10.17-4.87-19.29-11.55-27.12-9.48-11.11-21.72-16.46-36.15-16.97-5.82-.21-11.52,.84-17.07,2.64-9.65,3.13-18.04,8.43-25.52,15.2-11.39,10.31-19.62,22.85-25.55,36.94-7.18,17.08-10.52,34.94-10.5,53.45Z" style="fill: rgb(255, 255, 255);"/></g></svg>